<?xml version="1.0" encoding="UTF-8" standalone="no"?>
<!-- Created with Inkscape (http://www.inkscape.org/) -->

<svg
   xmlns:dc="http://purl.org/dc/elements/1.1/"
   xmlns:cc="http://creativecommons.org/ns#"
   xmlns:rdf="http://www.w3.org/1999/02/22-rdf-syntax-ns#"
   xmlns:svg="http://www.w3.org/2000/svg"
   xmlns="http://www.w3.org/2000/svg"
   xmlns:sodipodi="http://sodipodi.sourceforge.net/DTD/sodipodi-0.dtd"
   xmlns:inkscape="http://www.inkscape.org/namespaces/inkscape"
   width="30.25em"
   height="30.25em"
   viewBox="100 5 10 168"
   version="1.1"
   id="svg8"
   inkscape:version="0.92.1 unknown"
   sodipodi:docname="QCLI-logo.svg"
   inkscape:export-filename="/home/frank/Desktop/QCLI-logo.svg.png"
   inkscape:export-xdpi="96"
   inkscape:export-ydpi="96">
  <defs
     id="defs2">
    <inkscape:path-effect
       effect="skeletal"
       id="path-effect4619"
       is_visible="true"
       pattern="M 0,5 C 0,2.24 2.24,0 5,0 7.76,0 10,2.24 10,5 10,7.76 7.76,10 5,10 2.24,10 0,7.76 0,5 Z"
       copytype="single_stretched"
       prop_scale="0.26458333"
       scale_y_rel="false"
       spacing="0"
       normal_offset="0"
       tang_offset="0"
       prop_units="false"
       vertical_pattern="false"
       fuse_tolerance="0" />
    <inkscape:path-effect
       effect="skeletal"
       id="path-effect4607"
       is_visible="true"
       pattern="M 0,5 C 0,2.24 2.24,0 5,0 7.76,0 10,2.24 10,5 10,7.76 7.76,10 5,10 2.24,10 0,7.76 0,5 Z"
       copytype="single_stretched"
       prop_scale="0.26458333"
       scale_y_rel="false"
       spacing="0"
       normal_offset="0"
       tang_offset="0"
       prop_units="false"
       vertical_pattern="false"
       fuse_tolerance="0" />
    <inkscape:path-effect
       effect="skeletal"
       id="path-effect4603"
       is_visible="true"
       pattern="M 0,5 C 0,2.24 2.24,0 5,0 7.76,0 10,2.24 10,5 10,7.76 7.76,10 5,10 2.24,10 0,7.76 0,5 Z"
       copytype="single_stretched"
       prop_scale="0.26458333"
       scale_y_rel="false"
       spacing="0"
       normal_offset="0"
       tang_offset="0"
       prop_units="false"
       vertical_pattern="false"
       fuse_tolerance="0" />
    <inkscape:path-effect
       effect="skeletal"
       id="path-effect4599"
       is_visible="true"
       pattern="M 0,5 C 0,2.24 2.24,0 5,0 7.76,0 10,2.24 10,5 10,7.76 7.76,10 5,10 2.24,10 0,7.76 0,5 Z"
       copytype="single_stretched"
       prop_scale="0.26458333"
       scale_y_rel="false"
       spacing="0"
       normal_offset="0"
       tang_offset="0"
       prop_units="false"
       vertical_pattern="false"
       fuse_tolerance="0" />
    <inkscape:path-effect
       effect="skeletal"
       id="path-effect4595"
       is_visible="true"
       pattern="M 0,5 C 0,2.24 2.24,0 5,0 7.76,0 10,2.24 10,5 10,7.76 7.76,10 5,10 2.24,10 0,7.76 0,5 Z"
       copytype="single_stretched"
       prop_scale="0.26458333"
       scale_y_rel="false"
       spacing="0"
       normal_offset="0"
       tang_offset="0"
       prop_units="false"
       vertical_pattern="false"
       fuse_tolerance="0" />
    <inkscape:path-effect
       effect="skeletal"
       id="path-effect4587"
       is_visible="true"
       pattern="M 0,5 C 0,2.24 2.24,0 5,0 7.76,0 10,2.24 10,5 10,7.76 7.76,10 5,10 2.24,10 0,7.76 0,5 Z"
       copytype="single_stretched"
       prop_scale="0.26458333"
       scale_y_rel="false"
       spacing="0"
       normal_offset="0"
       tang_offset="0"
       prop_units="false"
       vertical_pattern="false"
       fuse_tolerance="0" />
    <inkscape:path-effect
       effect="skeletal"
       id="path-effect4575"
       is_visible="true"
       pattern="M 0,5 C 0,2.24 2.24,0 5,0 7.76,0 10,2.24 10,5 10,7.76 7.76,10 5,10 2.24,10 0,7.76 0,5 Z"
       copytype="single_stretched"
       prop_scale="0.26458333"
       scale_y_rel="false"
       spacing="0"
       normal_offset="0"
       tang_offset="0"
       prop_units="false"
       vertical_pattern="false"
       fuse_tolerance="0" />
  </defs>
  <sodipodi:namedview
     id="base"
     pagecolor="#ffffff"
     bordercolor="#666666"
     borderopacity="1.0"
     inkscape:pageopacity="0.0"
     inkscape:pageshadow="2"
     inkscape:zoom="0.7071068"
     inkscape:cx="621.63962"
     inkscape:cy="726.55839"
     inkscape:document-units="mm"
     inkscape:current-layer="g4548"
     showgrid="false"
     inkscape:window-width="1600"
     inkscape:window-height="853"
     inkscape:window-x="0"
     inkscape:window-y="0"
     inkscape:window-maximized="1"
     inkscape:object-nodes="true"
     inkscape:snap-text-baseline="false" />
  <metadata
     id="metadata5">
    <rdf:RDF>
      <cc:Work
         rdf:about="">
        <dc:format>image/svg+xml</dc:format>
        <dc:type
           rdf:resource="http://purl.org/dc/dcmitype/StillImage" />
        <dc:title />
      </cc:Work>
    </rdf:RDF>
  </metadata>
  <g
     inkscape:label="Layer 1"
     inkscape:groupmode="layer"
     id="layer1">
    <flowRoot
       xml:space="preserve"
       id="flowRoot4544"
       style="font-style:normal;font-weight:normal;font-size:42.66666721px;line-height:1.25;font-family:'URW Gothic L';letter-spacing:15.00000019px;word-spacing:0px;fill:#000000;fill-opacity:1;stroke:none;text-anchor:middle;text-align:center;-inkscape-font-specification:'URW Gothic L, Normal';font-stretch:normal;font-variant:normal;writing-mode:lr;font-variant-ligatures:normal;font-variant-caps:normal;font-variant-numeric:normal;font-feature-settings:normal;"
       transform="scale(0.26458333)"><flowRegion
         id="flowRegion4546"
         style="text-anchor:middle;text-align:center;letter-spacing:15.00000019px;-inkscape-font-specification:'URW Gothic L, Normal';font-family:'URW Gothic L';font-weight:normal;font-style:normal;font-stretch:normal;font-variant:normal;font-size:42.66666721px;writing-mode:lr;font-variant-ligatures:normal;font-variant-caps:normal;font-variant-numeric:normal;font-feature-settings:normal;fill:#000000;"><rect
           id="rect4548"
           width="231"
           height="48"
           x="243"
           y="362.51968"
           style="text-anchor:middle;text-align:center;letter-spacing:15.00000019px;-inkscape-font-specification:'URW Gothic L, Normal';font-family:'URW Gothic L';font-weight:normal;font-style:normal;font-stretch:normal;font-variant:normal;font-size:42.66666721px;writing-mode:lr;font-variant-ligatures:normal;font-variant-caps:normal;font-variant-numeric:normal;font-feature-settings:normal;fill:#000000;" /></flowRegion><flowPara
         id="flowPara4550">QCLI</flowPara></flowRoot>    <g
       aria-label="&quot;On the Level&quot;"
       style="font-style:normal;font-weight:normal;font-size:4.23333311px;line-height:1.25;font-family:sans-serif;letter-spacing:0.43656251px;word-spacing:0px;fill:#00ff00;fill-opacity:1;stroke:none;stroke-width:0.26458332"
       id="text4606"
       transform="translate(-30.1625,29.36875)" />
    <g
       id="g4548"
       transform="translate(-9.5415223,32.927605)">
      <g
         id="g4549"
         transform="matrix(1.5253608,0,0,1.6390994,-50.471955,-46.028941)">
        <path
           style="color:#000000;font-style:normal;font-variant:normal;font-weight:normal;font-stretch:normal;font-size:medium;line-height:normal;font-family:sans-serif;font-variant-ligatures:normal;font-variant-position:normal;font-variant-caps:normal;font-variant-numeric:normal;font-variant-alternates:normal;font-feature-settings:normal;text-indent:0;text-align:start;text-decoration:none;text-decoration-line:none;text-decoration-style:solid;text-decoration-color:#000000;letter-spacing:normal;word-spacing:normal;text-transform:none;writing-mode:lr-tb;direction:ltr;text-orientation:mixed;dominant-baseline:auto;baseline-shift:baseline;text-anchor:start;white-space:normal;shape-padding:0;clip-rule:nonzero;display:inline;overflow:visible;visibility:visible;opacity:1;isolation:auto;mix-blend-mode:normal;color-interpolation:sRGB;color-interpolation-filters:linearRGB;solid-color:#000000;solid-opacity:1;vector-effect:none;fill:#000000;fill-opacity:1;fill-rule:nonzero;stroke:none;stroke-width:2;stroke-linecap:butt;stroke-linejoin:miter;stroke-miterlimit:4;stroke-dasharray:none;stroke-dashoffset:0;stroke-opacity:1;color-rendering:auto;image-rendering:auto;shape-rendering:auto;text-rendering:auto;enable-background:accumulate"
           d="m 107.11085,19.848726 5.18728,2.994649 c -0.75435,-0.129421 -1.50988,-0.253986 -2.27118,-0.327629 -0.96778,-0.09362 -1.93965,-0.141763 -2.913,-0.144694 l -0.006,1.999878 c 0.91103,0.0027 1.82115,0.04829 2.72696,0.135909 0.90581,0.08762 1.8075,0.217197 2.70216,0.389124 l 0.33125,-1.723409 13.37283,7.720459 -0.29714,0.352433 c 0.74546,0.628004 1.45933,1.292832 2.13837,1.992126 l 0.82734,-0.803568 7.43572,4.292761 v 21.462256 l -1.06557,0.296105 c 0.26083,0.939679 0.47476,1.891168 0.64027,2.850989 0.16552,0.959821 0.28296,1.927833 0.35192,2.900598 l 0.0734,-0.0052 v 2.073775 c -1e-4,16.157392 -13.077,29.23405 -29.23439,29.233875 -16.157193,-1e-4 -29.233771,-13.076679 -29.233869,-29.233875 V 36.726765 l 5.45548,-3.149678 1.419035,1.195275 c 0.628002,-0.745466 1.292831,-1.459331 1.992124,-2.13837 l 1.768886,-1.717208 h -0.001 -0.571024 l 11.093897,-6.405294 0.256831,0.925008 c 0.93968,-0.260829 1.89116,-0.474756 2.85098,-0.640271 0.95982,-0.165515 1.92783,-0.282957 2.9006,-0.351916 l -0.14159,-1.99471 c -0.97468,0.06909 -1.94356,0.19309 -2.90629,0.352949 z"
           id="path4526"
           inkscape:connector-curvature="0" />
        <path
           style="opacity:1;fill:#000000;stroke:none;stroke-width:0.26458332px;stroke-linecap:butt;stroke-linejoin:miter;stroke-opacity:1"
           d="m 153.76161,61.259635 c -20.8194,12.020081 -20.8194,12.020081 -20.8194,12.020081 l 1.42072,-18.880603 z"
           id="path4623"
           inkscape:connector-curvature="0" />
        <path
           style="opacity:1;fill:#000000;stroke:none;stroke-width:0.26458332px;stroke-linecap:butt;stroke-linejoin:miter;stroke-opacity:1"
           d="m 60.459574,56.465094 c 20.683421,-11.94158 21.25128,-12.38473 21.25128,-12.38473 l -1.322917,20.108333 z"
           id="path4621"
           inkscape:connector-curvature="0" />
        <path
           style="color:#000000;font-style:normal;font-variant:normal;font-weight:normal;font-stretch:normal;font-size:medium;line-height:normal;font-family:sans-serif;font-variant-ligatures:normal;font-variant-position:normal;font-variant-caps:normal;font-variant-numeric:normal;font-variant-alternates:normal;font-feature-settings:normal;text-indent:0;text-align:start;text-decoration:none;text-decoration-line:none;text-decoration-style:solid;text-decoration-color:#000000;letter-spacing:normal;word-spacing:normal;text-transform:none;writing-mode:lr-tb;direction:ltr;text-orientation:mixed;dominant-baseline:auto;baseline-shift:baseline;text-anchor:start;white-space:normal;shape-padding:0;clip-rule:nonzero;display:inline;overflow:visible;visibility:visible;opacity:1;isolation:auto;mix-blend-mode:normal;color-interpolation:sRGB;color-interpolation-filters:linearRGB;solid-color:#000000;solid-opacity:1;vector-effect:none;fill:#000000;fill-opacity:1;fill-rule:nonzero;stroke:none;stroke-width:4;stroke-linecap:butt;stroke-linejoin:miter;stroke-miterlimit:4;stroke-dasharray:none;stroke-dashoffset:0;stroke-opacity:1;color-rendering:auto;image-rendering:auto;shape-rendering:auto;text-rendering:auto;enable-background:accumulate"
           d="m 107.11189,15.230403 -0.99994,0.576192 -0.50075,0.288872 -31.733976,18.322395 v 31.887459 c 1.11e-4,18.320594 14.913036,33.233518 33.233626,33.233629 18.32081,2.01e-4 33.23403,-14.912816 33.23415,-33.233629 V 34.417862 Z"
           id="path4541"
           inkscape:connector-curvature="0" />
        <path
           style="color:#000000;font-style:normal;font-variant:normal;font-weight:normal;font-stretch:normal;font-size:medium;line-height:normal;font-family:sans-serif;font-variant-ligatures:normal;font-variant-position:normal;font-variant-caps:normal;font-variant-numeric:normal;font-variant-alternates:normal;font-feature-settings:normal;text-indent:0;text-align:start;text-decoration:none;text-decoration-line:none;text-decoration-style:solid;text-decoration-color:#000000;letter-spacing:normal;word-spacing:normal;text-transform:none;writing-mode:lr-tb;direction:ltr;text-orientation:mixed;dominant-baseline:auto;baseline-shift:baseline;text-anchor:start;white-space:normal;shape-padding:0;clip-rule:nonzero;display:inline;overflow:visible;visibility:visible;opacity:1;isolation:auto;mix-blend-mode:normal;color-interpolation:sRGB;color-interpolation-filters:linearRGB;solid-color:#000000;solid-opacity:1;vector-effect:none;fill:#ff0000;fill-opacity:1;fill-rule:nonzero;stroke:none;stroke-width:2;stroke-linecap:butt;stroke-linejoin:miter;stroke-miterlimit:4;stroke-dasharray:none;stroke-dashoffset:0;stroke-opacity:1;color-rendering:auto;image-rendering:auto;shape-rendering:auto;text-rendering:auto;enable-background:accumulate"
           d="m 107.11085,17.539306 -0.50022,0.288355 -30.733529,17.744653 v 30.733007 c 1.06e-4,17.238067 13.995685,31.233647 31.233749,31.233752 17.23827,1.88e-4 31.23416,-13.995476 31.23427,-31.233752 V 35.572314 Z"
           id="path4532"
           inkscape:connector-curvature="0" />
        <path
           style="color:#000000;font-style:normal;font-variant:normal;font-weight:normal;font-stretch:normal;font-size:medium;line-height:normal;font-family:sans-serif;font-variant-ligatures:normal;font-variant-position:normal;font-variant-caps:normal;font-variant-numeric:normal;font-variant-alternates:normal;font-feature-settings:normal;text-indent:0;text-align:start;text-decoration:none;text-decoration-line:none;text-decoration-style:solid;text-decoration-color:#000000;letter-spacing:normal;word-spacing:normal;text-transform:none;writing-mode:lr-tb;direction:ltr;text-orientation:mixed;dominant-baseline:auto;baseline-shift:baseline;text-anchor:start;white-space:normal;shape-padding:0;clip-rule:nonzero;display:inline;overflow:visible;visibility:visible;opacity:1;isolation:auto;mix-blend-mode:normal;color-interpolation:sRGB;color-interpolation-filters:linearRGB;solid-color:#000000;solid-opacity:1;vector-effect:none;fill:#ffffff;fill-opacity:1;fill-rule:nonzero;stroke:none;stroke-width:2;stroke-linecap:butt;stroke-linejoin:miter;stroke-miterlimit:4;stroke-dasharray:none;stroke-dashoffset:0;stroke-opacity:1;color-rendering:auto;image-rendering:auto;shape-rendering:auto;text-rendering:auto;enable-background:accumulate"
           d="m 107.11085,17.539306 -0.50023,0.288355 -30.733519,17.744652 v 30.733008 c 1.06e-4,17.238067 13.995686,31.233646 31.233749,31.233752 17.23827,1.88e-4 31.23416,-13.995476 31.23427,-31.233752 V 35.572313 Z"
           id="path4528"
           inkscape:connector-curvature="0" />
        <path
           style="color:#000000;font-style:normal;font-variant:normal;font-weight:normal;font-stretch:normal;font-size:medium;line-height:normal;font-family:sans-serif;font-variant-ligatures:normal;font-variant-position:normal;font-variant-caps:normal;font-variant-numeric:normal;font-variant-alternates:normal;font-feature-settings:normal;text-indent:0;text-align:start;text-decoration:none;text-decoration-line:none;text-decoration-style:solid;text-decoration-color:#000000;letter-spacing:normal;word-spacing:normal;text-transform:none;writing-mode:lr-tb;direction:ltr;text-orientation:mixed;dominant-baseline:auto;baseline-shift:baseline;text-anchor:start;white-space:normal;shape-padding:0;clip-rule:nonzero;display:inline;overflow:visible;visibility:visible;opacity:1;isolation:auto;mix-blend-mode:normal;color-interpolation:sRGB;color-interpolation-filters:linearRGB;solid-color:#000000;solid-opacity:1;vector-effect:none;fill:#ff0000;fill-opacity:1;fill-rule:nonzero;stroke:none;stroke-width:2;stroke-linecap:butt;stroke-linejoin:miter;stroke-miterlimit:4;stroke-dasharray:none;stroke-dashoffset:0;stroke-opacity:1;color-rendering:auto;image-rendering:auto;shape-rendering:auto;text-rendering:auto;enable-background:accumulate"
           d="m 86.046507,32.010257 v 0.905371 l -0.297656,-0.733805 z"
           id="path4499"
           inkscape:connector-curvature="0" />
        <path
           style="color:#000000;font-style:normal;font-variant:normal;font-weight:normal;font-stretch:normal;font-size:medium;line-height:normal;font-family:sans-serif;font-variant-ligatures:normal;font-variant-position:normal;font-variant-caps:normal;font-variant-numeric:normal;font-variant-alternates:normal;font-feature-settings:normal;text-indent:0;text-align:start;text-decoration:none;text-decoration-line:none;text-decoration-style:solid;text-decoration-color:#000000;letter-spacing:normal;word-spacing:normal;text-transform:none;writing-mode:lr-tb;direction:ltr;text-orientation:mixed;dominant-baseline:auto;baseline-shift:baseline;text-anchor:start;white-space:normal;shape-padding:0;clip-rule:nonzero;display:inline;overflow:visible;visibility:visible;opacity:1;isolation:auto;mix-blend-mode:normal;color-interpolation:sRGB;color-interpolation-filters:linearRGB;solid-color:#000000;solid-opacity:1;vector-effect:none;fill:#000000;fill-opacity:1;fill-rule:nonzero;stroke:none;stroke-width:3.75031495;stroke-linecap:butt;stroke-linejoin:miter;stroke-miterlimit:4;stroke-dasharray:none;stroke-dashoffset:0;stroke-opacity:1;color-rendering:auto;image-rendering:auto;shape-rendering:auto;text-rendering:auto;enable-background:accumulate"
           d="m 60.459575,56.465094 v 1.875528 21.969013 l 93.302035,-19.05 V 37.415094 Z"
           id="path4566"
           inkscape:connector-curvature="0" />
        <path
           id="path4571"
           d="m 107.11109,23.359628 -0.42744,0.246395 -26.261336,15.162541 v 26.2609 c 9e-5,14.729671 11.959105,26.688685 26.688776,26.688776 14.72984,1.6e-4 26.68912,-11.958926 26.68922,-26.688776 v -26.2609 z"
           style="color:#000000;font-style:normal;font-variant:normal;font-weight:normal;font-stretch:normal;font-size:medium;line-height:normal;font-family:sans-serif;font-variant-ligatures:normal;font-variant-position:normal;font-variant-caps:normal;font-variant-numeric:normal;font-variant-alternates:normal;font-feature-settings:normal;text-indent:0;text-align:start;text-decoration:none;text-decoration-line:none;text-decoration-style:solid;text-decoration-color:#000000;letter-spacing:normal;word-spacing:normal;text-transform:none;writing-mode:lr-tb;direction:ltr;text-orientation:mixed;dominant-baseline:auto;baseline-shift:baseline;text-anchor:start;white-space:normal;shape-padding:0;clip-rule:nonzero;display:inline;overflow:visible;visibility:visible;opacity:1;isolation:auto;mix-blend-mode:normal;color-interpolation:sRGB;color-interpolation-filters:linearRGB;solid-color:#000000;solid-opacity:1;vector-effect:none;fill:#000000;fill-opacity:1;fill-rule:nonzero;stroke:none;stroke-width:1.70897019;stroke-linecap:butt;stroke-linejoin:miter;stroke-miterlimit:4;stroke-dasharray:none;stroke-dashoffset:0;stroke-opacity:1;color-rendering:auto;image-rendering:auto;shape-rendering:auto;text-rendering:auto;enable-background:accumulate"
           inkscape:connector-curvature="0" />
        <rect
           style="opacity:1;fill:#ffffff;fill-opacity:1;stroke:none;stroke-width:3.78880382;stroke-miterlimit:4;stroke-dasharray:none"
           id="rect4558"
           width="91.399994"
           height="20.093485"
           x="63.620892"
           y="70.684753"
           transform="matrix(0.97978602,-0.2000484,0,1,0,0)" />
        <text
           xml:space="preserve"
           style="font-style:normal;font-weight:normal;font-size:12.27675533px;line-height:1.25;font-family:sans-serif;letter-spacing:0px;word-spacing:0px;opacity:1;fill:#000000;fill-opacity:1;stroke:none;stroke-width:0.30691889"
           x="64.820053"
           y="85.331078"
           id="text4554"
           transform="skewY(-11.539789)"><tspan
             sodipodi:role="line"
             id="tspan4556"
             style="font-style:normal;font-variant:normal;font-weight:normal;font-stretch:condensed;font-size:13.23027706px;font-family:Impact;-inkscape-font-specification:'Impact, Condensed';font-variant-ligatures:normal;font-variant-caps:normal;font-variant-numeric:normal;font-feature-settings:normal;text-align:start;writing-mode:lr-tb;text-anchor:start;stroke-width:0.30691889"
             x="64.820053"
             y="85.331078">QC Leveling Inc.</tspan></text>
        <path
           sodipodi:type="star"
           style="opacity:1;fill:#ffffff;fill-opacity:1;fill-rule:nonzero;stroke:none;stroke-width:4;stroke-miterlimit:4;stroke-dasharray:none;stroke-opacity:1;paint-order:fill markers stroke"
           id="path4569"
           sodipodi:sides="5"
           sodipodi:cx="22.489582"
           sodipodi:cy="28.183334"
           sodipodi:r1="10.860815"
           sodipodi:r2="5.4304075"
           sodipodi:arg1="1.5220545"
           sodipodi:arg2="2.150373"
           inkscape:flatsided="false"
           inkscape:rounded="0"
           inkscape:randomized="0"
           d="m 23.018748,39.031251 -3.503236,-6.304324 -7.17939,-0.688135 4.913209,-5.279919 -1.564099,-7.040651 6.539767,3.041154 6.212724,-3.663226 -0.871411,7.159455 5.403773,4.776653 -7.078328,1.383632 z"
           transform="matrix(0.18203284,0.15480966,-0.15480966,0.18203284,108.17763,66.635913)" />
        <g
           aria-label="&quot;On the Level&quot;"
           style="font-style:normal;font-variant:normal;font-weight:normal;font-stretch:normal;font-size:6.3499999px;line-height:1.25;font-family:Impact;-inkscape-font-specification:Impact;letter-spacing:0.56620836px;word-spacing:0px;fill:#ffffff;fill-opacity:1;stroke:none;stroke-width:0.26458332"
           id="text4655"
           transform="matrix(1.1001198,0,0,1.067232,-10.193542,4.8996295)">
          <path
             d="m 90.601593,68.287244 0.475934,-0.719017 0.538847,-0.548563 0.676855,0.664868 -0.538847,0.548562 -0.694916,0.503914 z m 0.838327,0.82348 0.475934,-0.719017 0.538847,-0.548563 0.676855,0.664868 -0.538847,0.548563 -0.697128,0.50174 z"
             style="fill:#ffffff;stroke-width:0.26458332"
             id="path4661"
             inkscape:connector-curvature="0" />
          <path
             d="m 93.94889,72.764842 q -0.440787,0.614869 -0.655291,0.850226 -0.210176,0.234644 -0.51564,0.336123 -0.302944,0.103285 -0.643792,0.03061 -0.340848,-0.07267 -0.686081,-0.320164 -0.327594,-0.234846 -0.513796,-0.528561 -0.181876,-0.294428 -0.187079,-0.622434 -0.0052,-0.328006 0.145207,-0.601679 0.150411,-0.273674 0.602038,-0.903662 l 0.500403,-0.698027 q 0.440787,-0.614869 0.650964,-0.849512 0.214503,-0.235357 0.517447,-0.338643 0.305464,-0.101479 0.646312,-0.02881 0.340848,0.07267 0.686082,0.320164 0.327593,0.234846 0.509469,0.529274 0.186202,0.293715 0.191406,0.621721 0.0052,0.328006 -0.145208,0.60168 -0.150411,0.273673 -0.602038,0.903661 z m -0.09984,-2.101154 q 0.204135,-0.284755 0.227378,-0.386358 0.02757,-0.102317 -0.07071,-0.172771 -0.08316,-0.05961 -0.175486,-0.02661 -0.088,0.03229 -0.313816,0.347283 l -1.365719,1.905084 q -0.254718,0.355313 -0.286613,0.458344 -0.02938,0.104836 0.07646,0.180709 0.108358,0.07768 0.207244,0.0036 0.09889,-0.07408 0.357218,-0.434433 z"
             style="fill:#ffffff;stroke-width:0.26458332"
             id="path4663"
             inkscape:connector-curvature="0" />
          <path
             d="m 96.55633,71.817732 -0.183731,0.331366 q 0.221144,-0.144702 0.44557,-0.160481 0.228564,-0.01723 0.46041,0.09447 0.290506,0.139955 0.408926,0.365645 0.118419,0.22569 0.07056,0.460758 -0.04651,0.232275 -0.280665,0.718314 l -1.251516,2.597795 -1.128505,-0.54367 1.236714,-2.567068 q 0.184363,-0.382686 0.199595,-0.478597 0.01523,-0.09591 -0.09929,-0.151085 -0.120113,-0.05787 -0.19794,0.0251 -0.07648,0.08017 -0.278338,0.49917 l -1.207108,2.505615 -1.128505,-0.54367 1.785766,-3.706746 z"
             style="fill:#ffffff;stroke-width:0.26458332"
             id="path4665"
             inkscape:connector-curvature="0" />
          <path
             d="m 101.19434,72.86607 -0.15783,0.628509 0.32779,0.08231 -0.15859,0.631516 -0.32778,-0.08231 -0.53616,2.135127 q -0.0989,0.393946 -0.0712,0.448871 0.0308,0.05568 0.32849,0.130441 l -0.1616,0.643545 -0.490182,-0.12309 q -0.414996,-0.104211 -0.584116,-0.181845 -0.168364,-0.08064 -0.272727,-0.237918 -0.103609,-0.160286 -0.09667,-0.327975 0.0077,-0.170697 0.157219,-0.766126 l 0.508974,-2.026867 -0.261629,-0.0657 0.158583,-0.631517 0.261628,0.0657 0.157827,-0.628509 z"
             style="fill:#ffffff;stroke-width:0.26458332"
             id="path4667"
             inkscape:connector-curvature="0" />
          <path
             d="m 103.05773,72.822441 -0.13552,1.120447 q 0.17793,-0.12839 0.37156,-0.179926 0.1967,-0.05116 0.40909,-0.02547 0.32629,0.03947 0.53396,0.233238 0.21076,0.194145 0.23358,0.418651 0.0263,0.2218 -0.0434,0.797414 l -0.34068,2.816507 -1.24358,-0.15042 0.34776,-2.874992 q 0.0432,-0.357065 0.0185,-0.463112 -0.0216,-0.105675 -0.1447,-0.120568 -0.11389,-0.01378 -0.16657,0.08604 -0.0527,0.09982 -0.0903,0.41071 l -0.35259,2.915008 -1.24357,-0.15042 0.60279,-4.983525 z"
             style="fill:#ffffff;stroke-width:0.26458332"
             id="path4669"
             inkscape:connector-curvature="0" />
          <path
             d="m 107.87103,75.99039 -1.62112,0.03997 0.0219,0.889598 q 0.007,0.278968 0.0492,0.358565 0.0423,0.0796 0.15697,0.07677 0.14258,-0.0035 0.18648,-0.11005 0.0469,-0.10971 0.0393,-0.416575 l -0.0134,-0.542438 1.18717,-0.02927 0.007,0.303765 q 0.009,0.381257 -0.0352,0.587056 -0.0414,0.205723 -0.2124,0.442552 -0.17095,0.23683 -0.44081,0.361341 -0.26685,0.121336 -0.676,0.131424 -0.39675,0.0098 -0.70335,-0.09742 -0.30659,-0.107197 -0.48196,-0.301371 -0.17235,-0.19735 -0.24332,-0.434418 -0.0711,-0.240167 -0.0824,-0.698915 l -0.0296,-1.199562 q -0.0133,-0.539338 0.12474,-0.852894 0.13796,-0.316656 0.46558,-0.489114 0.32753,-0.175558 0.75838,-0.186181 0.52694,-0.01299 0.87287,0.180078 0.34895,0.189895 0.49351,0.518194 0.14759,0.325123 0.16234,0.923355 z m -1.27187,-0.638572 -0.007,-0.300665 q -0.008,-0.319264 -0.0443,-0.411412 -0.0364,-0.09215 -0.14178,-0.08955 -0.13018,0.0032 -0.15919,0.08456 -0.0291,0.07825 -0.0205,0.425415 l 0.007,0.300666 z"
             style="fill:#ffffff;stroke-width:0.26458332"
             id="path4671"
             inkscape:connector-curvature="0" />
          <path
             d="m 110.84143,72.432373 0.82652,3.92927 0.77675,-0.163389 0.20679,0.983077 -2.05414,0.432087 -1.03331,-4.912347 z"
             style="fill:#ffffff;stroke-width:0.26458332"
             id="path4673"
             inkscape:connector-curvature="0" />
          <path
             d="m 115.52912,74.183056 -1.53639,0.518757 0.28467,0.843105 q 0.0893,0.264389 0.15325,0.327873 0.064,0.06349 0.17267,0.02678 0.13513,-0.04563 0.14547,-0.160385 0.0123,-0.118688 -0.0859,-0.409516 l -0.17358,-0.514089 1.12512,-0.379892 0.0972,0.28789 q 0.122,0.361331 0.14046,0.571086 0.0214,0.208763 -0.0717,0.485624 -0.0931,0.276862 -0.31388,0.475779 -0.21888,0.194987 -0.60665,0.325916 -0.37602,0.126961 -0.70061,0.115473 -0.32458,-0.01149 -0.54964,-0.144944 -0.2231,-0.137385 -0.36117,-0.342755 -0.13906,-0.208307 -0.28586,-0.643079 l -0.38386,-1.136871 q -0.17258,-0.511151 -0.1337,-0.851535 0.0379,-0.343322 0.29964,-0.605149 0.26077,-0.264765 0.66911,-0.402637 0.4994,-0.168621 0.88701,-0.08678 0.38956,0.07791 0.62495,0.348595 0.23733,0.266757 0.42877,0.833723 z m -1.404,-0.232819 -0.0962,-0.284952 q -0.10216,-0.302578 -0.16424,-0.379797 -0.0621,-0.07722 -0.16195,-0.04349 -0.12338,0.04166 -0.12696,0.127957 -0.005,0.08336 0.10651,0.412377 l 0.0962,0.284952 z"
             style="fill:#ffffff;stroke-width:0.26458332"
             id="path4675"
             inkscape:connector-curvature="0" />
          <path
             d="m 117.61765,70.846958 1.25408,3.962273 -1.47275,0.707801 -2.34956,-3.435788 1.00885,-0.48485 1.61588,2.553404 q -0.10603,-0.313688 -0.57543,-1.512287 -0.25995,-0.669727 -0.48992,-1.305703 z"
             style="fill:#ffffff;stroke-width:0.26458332"
             id="path4677"
             inkscape:connector-curvature="0" />
          <path
             d="m 121.38356,70.985047 -1.36652,0.873063 0.4791,0.749886 q 0.15024,0.235156 0.22761,0.281388 0.0774,0.04623 0.17404,-0.01553 0.12019,-0.07679 0.10263,-0.190666 -0.0166,-0.118159 -0.18189,-0.37683 l -0.29213,-0.457248 1.00072,-0.639355 0.16359,0.256058 q 0.20533,0.32138 0.2737,0.520537 0.071,0.197488 0.0473,0.488603 -0.0237,0.291116 -0.19022,0.537305 -0.16555,0.241908 -0.51045,0.46226 -0.33444,0.213675 -0.65227,0.280595 -0.31782,0.06692 -0.56837,-0.0085 -0.2496,-0.07969 -0.433,-0.245824 -0.18508,-0.168746 -0.43214,-0.555447 l -0.64604,-1.01117 q -0.29046,-0.454635 -0.33459,-0.794378 -0.0458,-0.342356 0.1453,-0.659456 0.18943,-0.319712 0.55261,-0.55175 0.44419,-0.283787 0.84011,-0.297579 0.39686,-0.01807 0.69044,0.188049 0.29453,0.201842 0.61671,0.706121 z m -1.41878,0.111707 -0.16193,-0.253446 q -0.17194,-0.269123 -0.25076,-0.329146 -0.0788,-0.06002 -0.16766,-0.0033 -0.10974,0.07011 -0.0925,0.154739 0.0156,0.08201 0.20257,0.374653 l 0.16192,0.253446 z"
             style="fill:#ffffff;stroke-width:0.26458332"
             id="path4679"
             inkscape:connector-curvature="0" />
          <path
             d="m 121.11947,67.319909 3.1178,3.93424 -1.0109,0.801113 -3.11779,-3.93424 z"
             style="fill:#ffffff;stroke-width:0.26458332"
             id="path4681"
             inkscape:connector-curvature="0" />
          <path
             d="m 122.71634,68.08701 -0.70016,-0.503274 -0.5274,-0.559575 0.69045,-0.650746 0.5274,0.559576 0.47677,0.713808 z m 0.85515,-0.805989 -0.70015,-0.503273 -0.5274,-0.559576 0.69044,-0.650745 0.5274,0.559575 0.47452,0.715936 z"
             style="fill:#ffffff;stroke-width:0.26458332"
             id="path4683"
             inkscape:connector-curvature="0" />
        </g>
        <path
           style="fill:#ffffff;stroke-width:0.03388797"
           d="m 101.55193,41.806984 c -2.511249,-0.518082 -4.604589,-0.949834 -4.651873,-0.95945 -0.07577,-0.01541 -0.08597,-0.03669 -0.08597,-0.179561 v -0.162079 l 0.391635,-0.16441 c 0.349198,-0.146596 4.676428,-1.939759 5.798108,-2.402681 0.24167,-0.09974 0.61279,-0.253926 0.8247,-0.342643 0.41154,-0.17228 0.5508,-0.198795 0.5508,-0.10487 0,0.03104 -0.0215,0.07023 -0.0478,0.0871 -0.0263,0.01686 -1.21693,0.521204 -2.64593,1.120749 -4.036322,1.693473 -4.388403,1.844474 -4.375528,1.876582 0.01696,0.04225 3.266578,0.712039 3.305628,0.681329 0.0106,-0.0083 0.0192,-0.471923 0.0192,-1.030279 0,-1.015001 1e-5,-1.015203 0.0849,-1.061982 0.0733,-0.04036 0.2031,-0.06262 0.22912,-0.03927 0.004,0.0041 0.0175,0.506464 0.0287,1.116292 l 0.0203,1.108777 0.17194,0.04041 c 0.0946,0.02223 0.18483,0.04062 0.20059,0.04087 0.0158,2.41e-4 0.0287,-0.568219 0.0287,-1.263266 v -1.263723 l 0.0964,-0.07584 c 0.053,-0.04171 0.1261,-0.07138 0.16239,-0.06593 0.058,0.0087 0.0688,0.06787 0.0894,0.49048 0.0129,0.26431 0.0258,0.881364 0.0287,1.371228 0.005,0.85474 0.008,0.89128 0.0794,0.905929 0.0408,0.0084 0.0838,0.0077 0.0955,-0.0015 0.0117,-0.0092 0.0213,-0.655982 0.0213,-1.437243 v -1.420474 l 0.10068,-0.0623 c 0.0872,-0.05398 0.18551,-0.07917 0.21366,-0.05478 0.005,0.0041 0.0177,0.696333 0.0287,1.538223 l 0.02,1.53071 0.11463,0.02581 c 0.063,0.0142 0.47569,0.09858 0.917,0.187516 0.4413,0.08894 1.21503,0.246102 1.71938,0.349253 0.50435,0.103151 0.96372,0.193654 1.02081,0.201116 0.11191,0.01463 0.0733,0.03432 1.74067,-0.887922 1.40297,-0.776004 1.54319,-0.856079 1.55901,-0.890307 0.008,-0.01822 0.0198,-0.637056 0.0253,-1.375189 0.01,-1.280835 0.007,-1.34075 -0.0583,-1.313298 -0.11764,0.04956 -4.18023,2.089182 -4.82031,2.420046 -0.56069,0.289826 -0.61995,0.313358 -0.74329,0.295157 -0.19005,-0.02805 -0.41399,-0.124022 -0.46529,-0.199409 -0.0461,-0.06779 -0.0205,-0.325885 0.0414,-0.416845 0.0187,-0.02754 0.21978,-0.150316 0.44676,-0.27282 0.22697,-0.122503 0.52014,-0.304467 0.65148,-0.404363 l 0.2388,-0.18163 v -0.173891 c 0,-0.401802 -0.24944,-1.574127 -0.49941,-2.347102 -0.0789,-0.243847 -0.0832,-0.293689 -0.0459,-0.526011 0.0504,-0.314011 0.2136,-0.600452 0.4422,-0.776068 0.0883,-0.0678 0.298,-0.183101 0.46612,-0.256235 0.16812,-0.07313 0.95043,-0.413919 1.73848,-0.757299 3.62445,-1.579301 3.55723,-1.551319 3.83994,-1.598567 0.42619,-0.07123 0.8327,-0.04273 1.15216,0.08076 0.7049,0.272494 1.10546,0.893428 0.95137,1.474789 -0.11051,0.416877 -0.45415,0.777019 -0.91564,0.959578 -0.30131,0.1192 -0.52223,0.260449 -0.44283,0.283148 0.0536,0.01532 3.47993,0.408302 4.62322,0.530263 0.2837,0.03026 0.69635,0.07585 0.917,0.101311 0.22065,0.02546 0.41408,0.04653 0.42985,0.04684 0.0157,3.04e-4 0.0287,0.06633 0.0287,0.146718 v 0.146166 l -0.85012,0.475349 c -1.09002,0.609476 -4.9332,2.761227 -5.60708,3.139337 -3.11474,1.747652 -4.73794,2.644709 -4.78117,2.642292 -0.0287,-0.0016 -2.10685,-0.426803 -4.6181,-0.944884 z m 8.5192,-1.536917 0.1923,-0.112936 v -1.314882 -1.314881 l 0.0849,-0.0622 c 0.0467,-0.03421 0.11116,-0.05823 0.14329,-0.05336 0.0511,0.0077 0.0596,0.167372 0.0683,1.278306 0.006,0.698205 0.0246,1.269464 0.0426,1.269464 0.018,0 0.078,-0.02803 0.13331,-0.06229 l 0.10068,-0.06229 V 38.531443 37.22789 l 0.0849,-0.04679 c 0.0467,-0.02574 0.11547,-0.04679 0.15283,-0.04679 0.064,0 0.0679,0.07271 0.0679,1.262356 0,0.694296 0.008,1.262356 0.0182,1.262356 0.01,0 0.45272,-0.240871 0.98387,-0.535268 0.53114,-0.294398 1.24941,-0.691053 1.59615,-0.881457 l 0.63044,-0.346187 0.0101,-0.881817 c 0.006,-0.544261 0.0251,-0.895984 0.0492,-0.918827 0.0299,-0.02836 -0.0171,-0.04183 -0.20118,-0.05763 -0.13212,-0.01134 -0.76464,-0.0796 -1.40559,-0.15168 -0.64094,-0.07208 -1.33037,-0.146749 -1.53207,-0.165931 -0.42919,-0.04082 -0.38022,-0.05448 -1.0852,0.302853 -0.25217,0.127821 -0.75079,0.374042 -1.10804,0.547157 -0.35724,0.173116 -1.08535,0.529776 -1.61801,0.792577 l -0.96847,0.477821 -0.24464,0.382786 c -0.13456,0.210532 -0.24465,0.396929 -0.24465,0.414215 0,0.01728 0.0252,0.03904 0.0561,0.04836 0.0337,0.01017 1.12091,-0.522551 2.7239,-1.33467 1.46731,-0.743375 2.72158,-1.360877 2.78726,-1.372226 0.16441,-0.0284 0.42171,0.03175 0.5304,0.124009 0.12,0.101858 0.15639,0.259084 0.0809,0.34968 -0.0492,0.05907 -0.53136,0.310122 -2.33793,1.217347 -0.24213,0.121595 -0.25889,0.136257 -0.18148,0.158782 l 0.0853,0.02481 v 1.281568 c 0,1.113989 0.007,1.279356 0.0561,1.264649 0.0308,-0.0093 0.14259,-0.06774 0.24835,-0.129856 z m -5.16174,-0.532304 c 0.23729,-0.113729 0.46228,-0.232829 0.49998,-0.264668 0.0546,-0.04608 0.0725,-0.126549 0.0877,-0.394343 0.0241,-0.424138 0.088,-0.583685 0.52411,-1.308143 0.43971,-0.730461 0.51051,-0.893256 0.512,-1.177322 0.002,-0.363176 -0.19112,-0.6378 -0.59133,-0.841278 -0.25839,-0.131373 -0.45855,-0.162858 -0.77388,-0.121734 -0.28149,0.03671 -0.45242,0.136415 -0.58499,0.341213 -0.18456,0.28514 -0.15848,0.672791 0.10349,1.53851 0.13608,0.449694 0.26602,1.129987 0.26588,1.391937 -2e-4,0.383697 -0.0909,0.478986 -0.81878,0.860286 -0.24189,0.126712 -0.44989,0.243241 -0.46223,0.258952 -0.0123,0.01571 0.023,0.02857 0.0786,0.02857 0.0637,0 0.14569,0.03608 0.22195,0.09768 l 0.1209,0.09768 0.1926,-0.150281 c 0.10592,-0.08265 0.38673,-0.243331 0.62401,-0.357059 z m 4.09316,-2.038796 c 1.50255,-0.740556 2.7558,-1.373803 2.78501,-1.407216 0.0678,-0.07766 0.036,-0.101021 -0.14044,-0.102795 -0.12361,-0.0013 -0.47957,0.170602 -2.75919,1.332026 -1.4395,0.733398 -2.65595,1.34508 -2.70324,1.359294 -0.0953,0.02864 -0.10561,0.06253 -0.0459,0.150372 0.0238,0.03491 0.0588,0.04996 0.086,0.03688 0.0252,-0.01215 1.2752,-0.628007 2.77774,-1.368562 z m 5.89365,-0.108031 c 0.06,-0.04057 0.0669,-0.115112 0.0669,-0.731802 0,-0.51401 0.0115,-0.686632 0.0458,-0.686632 0.0289,0 0.0324,-0.01044 0.01,-0.0282 -0.02,-0.01551 -0.13087,-0.03721 -0.24645,-0.04821 -0.20231,-0.01926 -0.20694,-0.01815 -0.12417,0.02991 0.0852,0.04946 0.086,0.05692 0.086,0.801389 0,0.789195 -0.004,0.775516 0.16239,0.663554 z m -8.07289,-0.274793 c 0.0442,-0.04876 0.12614,-0.167108 0.18223,-0.262991 0.0868,-0.148341 0.1015,-0.213024 0.0988,-0.433854 -0.005,-0.387848 -0.13192,-0.659382 -0.4524,-0.965609 -0.14039,-0.134143 -0.2482,-0.199083 -0.48587,-0.292661 -0.27278,-0.107398 -0.33462,-0.120123 -0.57804,-0.118945 -0.31263,0.0015 -0.48792,0.04305 -0.68782,0.162987 -0.16087,0.09652 -0.16011,0.131956 0.001,0.06625 0.06,-0.02441 0.21427,-0.06066 0.34279,-0.08055 0.19956,-0.03088 0.26582,-0.02882 0.4538,0.01417 0.51938,0.118771 0.93605,0.457666 1.12928,0.918491 0.11207,0.267267 0.10377,0.469259 -0.033,0.803351 -0.11777,0.287629 -0.10948,0.342129 0.0288,0.189361 z m 9.00495,-0.234444 c 0.26125,-0.144646 0.59041,-0.328252 0.73146,-0.408014 0.14105,-0.07976 0.32255,-0.178798 0.40334,-0.220077 0.0808,-0.04128 0.13988,-0.08057 0.13131,-0.08731 -0.0156,-0.0123 -0.78157,-0.09994 -1.42445,-0.162985 -0.18913,-0.01855 -0.383,-0.04017 -0.43082,-0.04806 l -0.0869,-0.01434 0.0774,0.06087 c 0.072,0.05662 0.0774,0.09869 0.0774,0.601887 0,0.297555 0.0104,0.541009 0.0231,0.541009 0.0127,0 0.23691,-0.118345 0.49816,-0.26299 z m -8.13486,-0.609827 c 0.11524,-0.09717 0.29813,-0.208475 0.43137,-0.262528 0.19821,-0.08041 0.25823,-0.09133 0.4196,-0.07629 0.27763,0.02586 0.66516,-0.07997 0.92043,-0.251381 0.24311,-0.163237 0.37837,-0.294124 0.5693,-0.550916 0.08,-0.107548 0.1778,-0.218615 0.21742,-0.246816 0.13659,-0.09724 0.34736,-0.146685 0.53971,-0.126613 0.38631,0.04031 0.6552,-0.08492 0.90565,-0.421789 0.11406,-0.153428 0.19656,-0.221919 0.38138,-0.31664 0.34444,-0.176532 0.42109,-0.250244 0.41672,-0.400717 -0.007,-0.246853 -0.31842,-0.585952 -0.66663,-0.726305 -0.32337,-0.130338 -0.59302,-0.174343 -0.97041,-0.158368 -0.33873,0.01434 -0.35721,0.01913 -0.86196,0.223488 -0.2837,0.11486 -0.8339,0.34904 -1.22268,0.5204 -0.38876,0.171361 -0.77763,0.341666 -0.86414,0.378454 -0.62649,0.266415 -0.77084,0.329585 -0.85523,0.374255 -0.0525,0.02781 -0.34483,0.155294 -0.64954,0.2833 -0.30471,0.128007 -0.5777,0.250509 -0.60663,0.272228 -0.0439,0.03298 -0.0134,0.04816 0.18575,0.0921 0.25343,0.05594 0.54709,0.208261 0.84117,0.436325 0.38089,0.295378 0.57167,0.631261 0.57537,1.012973 0.002,0.192622 0.01,0.221642 0.0478,0.17255 0.025,-0.03246 0.13555,-0.134927 0.24559,-0.227706 z"
           id="path4697"
           inkscape:connector-curvature="0" />
      </g>
    </g>
  </g>
</svg>
